<?xml version="1.0" encoding="UTF-8"?>
<svg version="1.1" xmlns="http://www.w3.org/2000/svg" width="500" height="500">
<path d="M0 0 C165 0 330 0 500 0 C500 165 500 330 500 500 C335 500 170 500 0 500 C0 335 0 170 0 0 Z " fill="#000000" transform="translate(0,0)"/>
<path d="M0 0 C113.52 0 227.04 0 344 0 C343.34357398 3.28213011 342.70903844 6.12195876 341.66666889 9.24329567 C341.39463998 10.0627478 341.12261107 10.88219993 340.84233886 11.72648394 C340.39411884 13.06138229 340.39411884 13.06138229 339.93684387 14.42324829 C339.46035283 15.85422633 339.46035283 15.85422633 338.97423571 17.31411302 C337.90730214 20.51586742 336.83608291 23.71617138 335.76489258 26.91650391 C334.99903085 29.21188764 334.23343794 31.50736109 333.46809387 33.80291748 C331.81598089 38.75631867 330.16204664 43.70910777 328.50650978 48.66136551 C326.09731572 55.86816959 323.69177472 63.07618897 321.28715142 70.28451924 C317.3649618 82.04182155 313.44031849 93.79830319 309.51391602 105.55419922 C309.16139901 106.60966025 309.16139901 106.60966025 308.80176046 107.68644373 C308.56653611 108.39072125 308.33131176 109.09499877 308.0889594 109.82061803 C307.61344387 111.24434412 307.13792893 112.6680704 306.66241455 114.09179688 C306.42695088 114.79679258 306.1914872 115.50178828 305.94888826 116.22814748 C303.35903873 123.98249016 300.7698603 131.73705687 298.1809082 139.49169922 C297.83473629 140.5285787 297.83473629 140.5285787 297.481571 141.58640523 C293.58636371 153.25378707 289.69246401 164.92160507 285.79920501 176.58963716 C283.62238953 183.1132778 281.44481798 189.63666428 279.26532936 196.15941238 C276.81442869 203.49459718 274.36494867 210.83025454 271.91723633 218.16650391 C271.52626979 219.33825519 271.13530324 220.51000647 270.73248923 221.71726537 C265.75775747 236.63459853 260.85207678 251.57162334 256.01049805 266.53271484 C247.55458532 292.42609482 238.75182927 318.20513479 230 344 C116.48 344 2.96 344 -114 344 C-112.81009868 338.64544405 -111.73029072 333.81590074 -110.02316952 328.69757175 C-109.63314721 327.52091499 -109.2431249 326.34425822 -108.84128374 325.13194519 C-108.41168107 323.85100269 -107.98199377 322.57008857 -107.55223083 321.28919983 C-107.09298201 319.90942647 -106.63412785 318.5295217 -106.17563206 317.14949793 C-104.92054243 313.37561503 -103.6598761 309.60361581 -102.39825594 305.83191192 C-101.03644751 301.75741428 -99.67985221 297.68118113 -98.32260132 293.60516357 C-95.66590507 285.62944955 -93.00443705 277.65533576 -90.34136682 269.68174804 C-87.24133136 260.39919304 -84.14613944 251.11502539 -81.05117214 241.8307796 C-75.53100219 225.27195666 -70.00659853 208.71454933 -64.47973633 192.15795898 C-59.11357201 176.08274776 -53.75014907 160.00662553 -48.38989258 143.92944336 C-48.05942692 142.93826915 -47.72896126 141.94709494 -47.38848149 140.92588515 C-46.72277612 138.92921163 -46.05707092 136.93253805 -45.39136589 134.93586442 C-45.06299929 133.95098417 -44.73463268 132.96610392 -44.39631557 131.95137882 C-44.06879162 130.96902295 -43.74126767 129.98666709 -43.40381875 128.97454286 C-38.2980745 113.66100729 -33.19003224 98.34823818 -28.08167098 83.03557544 C-26.22862488 77.48087626 -24.37587954 71.92607687 -22.52334123 66.37120832 C-19.58678634 57.56596932 -16.64923446 48.76106431 -13.70962816 39.9568435 C-12.36599841 35.93257508 -11.02283905 31.90815134 -9.6809597 27.88329887 C-8.45421949 24.20386208 -7.22610266 20.52488789 -5.99685014 16.84628969 C-5.55088228 15.5109052 -5.10542468 14.17535018 -4.66051119 12.83961404 C-4.05871246 11.03313073 -3.45491025 9.22731521 -2.85098934 7.42154026 C-2.51526155 6.4156034 -2.17953377 5.40966653 -1.83363241 4.37324673 C-1 2 -1 2 0 0 Z " fill="#006138" transform="translate(135,78)"/>
</svg>
